<?xml version="1.0" encoding="UTF-8"?>
<!DOCTYPE svg PUBLIC "-//W3C//DTD SVG 1.1//EN" "http://www.w3.org/Graphics/SVG/1.1/DTD/svg11.dtd">
<!-- Creator: CorelDRAW -->
<svg xmlns="http://www.w3.org/2000/svg" xml:space="preserve" width="2048px" height="2048px" style="shape-rendering:geometricPrecision; text-rendering:geometricPrecision; image-rendering:optimizeQuality; fill-rule:evenodd; clip-rule:evenodd"
viewBox="0 0 2048 2048"
 xmlns:xlink="http://www.w3.org/1999/xlink">
 <defs>
  <style type="text/css">
   <![CDATA[
    .fil2 {fill:none}
    .fil1 {fill:#212121}
    .fil0 {fill:#212121;fill-rule:nonzero}
   ]]>
  </style>
 </defs>
 <g id="Layer_x0020_1">
  <metadata id="CorelCorpID_0Corel-Layer"/>
  <g id="_314334160">
   <path id="_314335192" class="fil0" d="M1040.64 288.294l-743.697 0 0 575.005 743.697 0 0 -575.005zm-775.992 607.3c0,-213.199 0,-426.396 0,-639.595 269.43,0 538.858,0 808.288,0 0,213.199 0,426.396 0,639.595 -269.43,0 -538.858,0 -808.288,0z"/>
   <path id="_314335024" class="fil0" d="M1024.5 556.721c-14.3291,-2.8311 -31.9807,-4.85788 -56.3115,-4.98544 -27.9685,-0.147638 -45.4382,-18.8209 -65.7024,-40.4835 -16.4988,-17.6362 -34.565,-36.9473 -61.1091,-52.3382l-17.3646 -10.0689c-63.1784,-36.6355 -76.2851,-20.3646 -121.481,35.7402 -6.82087,8.46615 -14.5205,18.0248 -23.7047,28.8709 -18.3118,21.6284 -19.5567,31.9335 -21.3201,46.552 -0.330709,2.74252 -0.687402,5.68347 -1.22717,8.8252 -15.4039,8.40355 -30.6012,20.5335 -47.941,34.3713 -25.7717,20.5677 -56.6032,45.1737 -97.982,64.728l-5.48622 2.59134c-10.6004,5.00906 -17.8654,8.55237 -24.7547,11.9126 -59.3871,28.9607 -92.9351,45.3225 -164.94,13.865l0.0188977 -0.0425197c-0.690945,-0.302362 -1.3937,-0.552756 -2.09882,-0.751182l0 151.645 711.404 0 0 -290.432z"/>
   <path id="_314334904" class="fil0" d="M391.472 410.045c16.3654,-16.3642 38.9752,-26.4874 63.9461,-26.4874 24.9697,0 47.5796,10.1232 63.9437,26.4874 16.3642,16.3654 26.4874,38.974 26.4874,63.9449 0,24.9685 -10.1244,47.5796 -26.4874,63.9437 -16.3642,16.363 -38.9752,26.4874 -63.9437,26.4874 -24.9709,0 -47.5796,-10.1232 -63.9449,-26.4874 -16.3642,-16.3642 -26.4886,-38.974 -26.4886,-63.9437 0,-24.9709 10.1232,-47.5796 26.4874,-63.9449z"/>
   <path id="_314334784" class="fil0" d="M471.565 325.42c0,-8.91733 -7.23071,-16.148 -16.1469,-16.148 -8.91733,0 -16.148,7.23071 -16.148,16.148l0 21.2244c0,8.91733 7.23071,16.148 16.148,16.148 8.91615,0 16.1469,-7.23071 16.1469,-16.148l0 -21.2244z"/>
   <path id="_314334952" class="fil0" d="M334.762 385.766c-7.69843,-4.42323 -17.5252,-1.76929 -21.9484,5.92914 -4.42441,7.69725 -1.76929,17.5252 5.92796,21.9484l18.3815 10.6122c7.69725,4.42323 17.5252,1.76929 21.9484,-5.92914 4.42441,-7.69725 1.76929,-17.5252 -5.92796,-21.9484l-18.3815 -10.6122z"/>
   <path id="_314334880" class="fil0" d="M318.742 534.335c-7.69725,4.42323 -10.3524,14.2512 -5.92796,21.9496 4.42323,7.69725 14.25,10.3524 21.9484,5.92796l18.3815 -10.611c7.69725,-4.42441 10.3524,-14.2512 5.92796,-21.9496 -4.42323,-7.69725 -14.2512,-10.3524 -21.9484,-5.92914l-18.3815 10.6122z"/>
   <path id="_314334688" class="fil0" d="M439.27 622.558c0,8.91733 7.23071,16.148 16.148,16.148 8.91615,0 16.1469,-7.23071 16.1469,-16.148l0 -21.2244c0,-8.91733 -7.23071,-16.1469 -16.1469,-16.1469 -8.91733,0 -16.148,7.22953 -16.148,16.1469l0 21.2244z"/>
   <path id="_314334664" class="fil0" d="M576.009 562.212c7.69725,4.45866 17.5536,1.83307 22.0122,-5.86536 4.45748,-7.69725 1.83189,-17.5536 -5.86536,-22.0122l-18.3803 -10.6122c-7.69843,-4.45748 -17.5547,-1.83189 -22.0122,5.86654 -4.45748,7.69725 -1.83189,17.5536 5.86536,22.0122l18.3803 10.611z"/>
   <path id="_314334568" class="fil0" d="M592.156 413.644c7.69725,-4.45748 10.3228,-14.3138 5.86536,-22.0122 -4.45866,-7.69725 -14.315,-10.3228 -22.0122,-5.86536l-18.3803 10.6122c-7.69725,4.45748 -10.3228,14.3138 -5.86536,22.0122 4.45748,7.69725 14.3138,10.3228 22.0122,5.86536l18.3803 -10.6122z"/>
   <polygon id="_314334520" class="fil0" points="1735.93,876.653 1735.94,876.654 1735.02,877.273 1735.02,877.27 "/>
   <polygon id="_314335072" class="fil0" points="1717.03,889.405 1716.93,889.502 1714.29,891.281 1714.25,891.277 "/>
   <path id="_314333776" class="fil1" d="M1452.94 1365.24l82.2095 370.663c0.0826772,0.367323 0.15,0.729922 0.21378,1.09134l0.396851 1.76575c3.92008,17.4165 14.4957,32.3717 29.5736,41.9138 14.3563,9.08505 31.5945,11.7036 48.2552,9.15709 0.120473,-0.0177165 0.240945,-0.0354331 0.36378,-0.0531496l1.79882 -0.403937c17.4165,-3.91536 32.374,-14.4945 41.915,-29.5725 9.09568,-14.3728 11.6976,-31.6311 9.14883,-48.3083 -0.0354331,-0.238583 -0.0696851,-0.483071 -0.102756,-0.72756l-66.0355 -336.933c-49.2154,-1.75394 -98.5926,-4.99252 -147.737,-8.59253z"/>
   <path id="_314334328" class="fil1" d="M1231.53 1346.99c-1.55079,3.79843 -2.75079,7.73741 -3.59646,11.7685 -1.76339,8.41772 -1.54843,17.1284 -0.407481,25.6134l0.142913 0.722835 50.5926 349.497c2.61378,17.7024 12.0662,33.4288 26.4024,44.1071 14.2913,10.6453 32.0457,15.1677 49.689,12.5894 17.7,-2.58898 33.4122,-12.0744 44.0859,-26.4024 10.6406,-14.2878 15.1949,-32.0256 12.5894,-49.6654l-46.9146 -324.606 29.028 -29.6091c-53.8996,-4.27559 -107.783,-8.97875 -161.612,-14.015z"/>
   <path id="_314333728" class="fil1" d="M1552.3 655.456l-0.392126 -0.421654c-19.7953,-21.2032 -44.8276,-38.6835 -74.0516,-43.024 -28.5544,-4.24252 -57.5977,2.91969 -81.8174,18.4122 -1.26732,0.810237 -2.57362,1.71969 -3.64016,2.78622l-226.063 226.068c-12.652,12.652 -19.6819,29.6138 -19.6819,47.504 0,17.889 7.02875,34.8508 19.6807,47.5004 12.6532,12.652 29.6114,19.6819 47.504,19.6819 17.8937,0 34.4398,-9.13111 48.0248,-20.0823l82.5284 -66.5256 -16.6063 51.4713c-9.6756,29.9823 -19.6536,60.6213 -31.911,89.654 -8.72717,20.6705 -18.8776,40.7174 -32.6032,58.5603 -14.2146,18.4784 -31.6796,33.7843 -50.0516,47.987 -25.4929,19.7055 -52.7977,37.8697 -79.4268,56.0197 -15.0142,10.2343 -29.7697,20.8795 -44.6067,31.3689 -18.4276,13.0276 -36.9674,25.8496 -55.8402,38.2276 -4.52953,2.97047 -7.96418,7.42205 -8.57717,12.9165 -0.979135,8.76615 5.01615,16.7799 13.5236,18.4583l169.629 18.9331c1.12559,0.120473 2.22047,0.155906 3.36024,0.315355 9.11576,1.26969 18.4996,2.1248 27.6579,3.07914 19.1043,1.99016 38.2229,3.86339 57.3461,5.67402 54.463,5.1567 109.004,9.81024 163.571,13.735 58.7363,4.22481 118.773,8.21812 177.657,8.29489l87.7749 0.114567c7.24961,0.00944883 14.9421,-2.83465 18.2457,-9.48898l0.686221 -2.0563c1.12677,-3.38386 1.66181,-6.80552 1.44213,-10.3701 -1.22008,-19.8673 -30.391,-49.3052 -43.1776,-63.3792 -37.9725,-41.7992 -71.9292,-82.2934 -98.2005,-132.852 -35.7378,-68.7768 -49.2886,-141.594 -39.5044,-218.671l4.2 -33.0957 63.9485 65.2571 16.8579 150.471c1.98543,17.7248 10.7669,33.7843 24.6886,44.9422 13.4528,10.7799 30.4666,15.4961 47.5843,14.5465 0.105118,-0.00708662 0.210236,-0.0129921 0.316536,-0.0177165l1.39606 -0.153543c17.7248,-1.95591 33.7618,-10.7728 44.9103,-24.6851 10.7776,-13.4492 15.4984,-30.4547 14.5465,-47.5713 -0.00708662,-0.125197 -0.0129921,-0.251575 -0.0188977,-0.377953l-18.8528 -168.272 -0.327166 -2.31851c-1.15748,-8.20512 -4.91103,-20.4449 -8.16615,-28.1681 -0.969686,-2.30079 -2.12599,-4.53898 -3.26339,-6.76182 -0.323622,-0.63189 -0.659056,-1.30039 -1.02638,-1.93347l-0.517323 -0.764174c-10.9323,-16.1516 -26.7792,-32.6185 -40.2815,-46.7103 -19.852,-20.7189 -40.3796,-40.852 -60.7973,-61.0146 -18.6851,-18.4512 -37.4079,-36.9095 -55.6252,-55.826 -14.4413,-14.9953 -29.426,-30.8492 -42.052,-47.439z"/>
   <polygon id="_314334184" class="fil0" points="1716.96,889.479 1717.06,889.383 1735.02,877.27 1735.02,877.273 "/>
   <path id="_314334304" class="fil1" d="M1489.83 274.171c-39.6945,0 -77.3623,15.6106 -105.426,43.6725 -28.0618,28.0618 -43.6713,65.7308 -43.6713,105.423 0,39.6933 15.6106,77.3623 43.6713,105.425 28.063,28.0607 65.7331,43.6713 105.426,43.6713 39.691,0 77.3611,-15.6106 105.422,-43.6713 28.0607,-28.063 43.6725,-65.7319 43.6725,-105.425 0,-39.6922 -15.6106,-77.3611 -43.6713,-105.424 -28.063,-28.0607 -65.7319,-43.6713 -105.423,-43.6713z"/>
  </g>
 </g>
 <rect class="fil2" width="2048" height="2048"/>
</svg>
