<?xml version="1.0" encoding="iso-8859-1"?>
<!-- Generator: Adobe Illustrator 19.0.1, SVG Export Plug-In . SVG Version: 6.00 Build 0)  -->
<svg version="1.1" xmlns="http://www.w3.org/2000/svg" xmlns:xlink="http://www.w3.org/1999/xlink" x="0px" y="0px"
	 viewBox="0 0 128 128" style="enable-background:new 0 0 128 128;" xml:space="preserve">
<g id="_x37_">
	<path id="_x31__1_" style="fill:#1E1E1E;" d="M109.873,81.954c0.014-0.043,0.029-0.072,0.043-0.115V81.42
		C109.916,81.608,109.902,81.781,109.873,81.954z M84.672,16.275c-5.583,0-10.098,4.515-10.098,10.098
		c0,5.568,4.515,10.098,10.098,10.098c5.568,0,10.098-4.53,10.098-10.098C94.769,20.79,90.24,16.275,84.672,16.275z M64.375,81.579
		c0.014-0.043,0.029-0.072,0.043-0.115v-0.418C64.418,81.233,64.404,81.406,64.375,81.579z M39.174,15.9
		c-5.583,0-10.098,4.515-10.098,10.098c0,5.568,4.515,10.098,10.098,10.098c5.568,0,10.098-4.53,10.098-10.098
		C49.272,20.415,44.742,15.9,39.174,15.9z M112.513,75.203c0,2.193-1.76,4.126-4.14,4.126c-1.803,0-3.39-1.183-3.924-2.914
		l-7.761-25.23h-1.644l12.622,45.267H97.568V128H87.11V98.904c0-1.356-1.096-2.452-2.452-2.452c-1.342,0-2.452,1.096-2.452,2.452
		V128H71.761V96.452H61.663l12.608-45.252h-1.616l-7.761,25.216c-0.115,0.361-0.26,0.692-0.476,0.995v3.635
		c0,0.188-0.014,0.361-0.043,0.534c-0.274,2.207-2.25,3.88-4.587,3.664c-2.193-0.216-3.794-2.193-3.794-4.4V54.344
		c0-0.851-0.692-1.544-1.544-1.544c-0.851,0-1.544,0.692-1.544,1.544V128H42.059V87.537c0-1.168-0.938-2.106-2.106-2.106
		s-2.106,0.938-2.106,2.106V128H26.999V54.344c0-0.851-0.692-1.544-1.544-1.544c-0.851,0-1.543,0.692-1.543,1.544v26.499
		c0,2.207-1.601,4.183-3.794,4.4c-2.337,0.216-4.313-1.457-4.587-3.664c-0.029-0.173-0.043-0.346-0.043-0.534V49.079
		c0-4.977,3.664-9.16,8.424-9.954c0.548-0.101,31.534-0.101,32.082,0c4.76,0.793,8.424,4.977,8.424,9.954v3.404l2.64-7.645
		c1.414-4.082,5.236-6.809,9.55-6.809h16.113c4.328,0,8.136,2.726,9.564,6.809l9.997,29.009
		C112.44,74.294,112.513,74.756,112.513,75.203z M63.747,3.635c0,0,4.702-6.51,10.536-1.902c8.154,6.439-7.065,19.316-10.63,19.316
		c-2.728,0-18.239-12.878-10.63-19.316C58.699-3.07,63.56,3.635,63.56,3.635"/>
</g>
<g id="Layer_1">
</g>
</svg>
