<?xml version="1.0" encoding="UTF-8"?>
<!DOCTYPE svg PUBLIC "-//W3C//DTD SVG 1.1//EN" "http://www.w3.org/Graphics/SVG/1.1/DTD/svg11.dtd">
<!-- Creator: CorelDRAW -->
<svg xmlns="http://www.w3.org/2000/svg" xml:space="preserve" width="2048px" height="2048px" style="shape-rendering:geometricPrecision; text-rendering:geometricPrecision; image-rendering:optimizeQuality; fill-rule:evenodd; clip-rule:evenodd"
viewBox="0 0 2048 2048"
 xmlns:xlink="http://www.w3.org/1999/xlink">
 <defs>
  <style type="text/css">
   <![CDATA[
    .fil2 {fill:none}
    .fil0 {fill:#212121;fill-rule:nonzero}
    .fil1 {fill:#66BB6A;fill-rule:nonzero}
   ]]>
  </style>
 </defs>
 <g id="Layer_x0020_1">
  <metadata id="CorelCorpID_0Corel-Layer"/>
  <path class="fil0" d="M421.179 255.999l1205.64 0c13.2543,0 24,10.7457 24,24l0 1488c0,13.2543 -10.7457,24 -24,24l-1205.64 0c-13.2543,0 -24,-10.7457 -24,-24l0 -1488c0,-13.2543 10.7457,-24 24,-24zm1181.64 48l-1157.64 0 0 1440 1157.64 0 0 -1440z"/>
  <polygon class="fil0" points="575.998,1128 1472,1128 1472,1176 575.998,1176 "/>
  <polygon class="fil0" points="575.998,1352 1472,1352 1472,1400 575.998,1400 "/>
  <polygon class="fil0" points="575.998,1576 1472,1576 1472,1624 575.998,1624 "/>
  <path class="fil1" d="M1024 424.001c82.865,0 157.89,33.5906 212.195,87.8953 54.3059,54.3059 87.8965,129.33 87.8965,212.195 0,82.865 -33.5906,157.89 -87.8965,212.195 -54.3048,54.3059 -129.328,87.8965 -212.195,87.8965 -82.8662,0 -157.89,-33.5906 -212.195,-87.8965 -54.3059,-54.3048 -87.8965,-129.33 -87.8965,-212.195 0,-82.865 33.5906,-157.889 87.8965,-212.195 54.3048,-54.3048 129.33,-87.8953 212.195,-87.8953zm178.257 121.833c-45.6166,-45.6166 -108.643,-73.8331 -178.257,-73.8331 -69.6142,0 -132.64,28.2166 -178.257,73.8331 -45.6178,45.6178 -73.8343,108.643 -73.8343,178.257 0,69.6142 28.2166,132.64 73.8343,178.257 45.6166,45.6178 108.641,73.8343 178.257,73.8343 69.6154,0 132.64,-28.2166 178.257,-73.8343 45.6178,-45.6166 73.8343,-108.643 73.8343,-178.257 0,-69.6142 -28.2166,-132.639 -73.8343,-178.257z"/>
  <path class="fil1" d="M839.637 945.148c-1.81181,13.0984 7.33938,25.1882 20.4378,27 13.0984,1.81181 25.1882,-7.33938 27,-20.4378 2.69528,-19.4575 12.5551,-36.7796 26.8335,-49.2178 14.0351,-12.228 32.3422,-19.6571 52.2863,-19.6571l6.09095 0c6.62245,4.6689 13.5543,8.5382 20.752,11.4437 9.96379,4.02284 20.3221,6.2315 30.9626,6.2315 10.6417,0 20.9988,-2.20866 30.9638,-6.2315 7.19764,-2.90551 14.1295,-6.77481 20.752,-11.4437l6.09095 0c19.7622,0 37.9193,7.30158 51.9071,19.3417 14.2264,12.2457 24.1323,29.3374 27.0355,48.5906 1.96654,13.0984 14.1827,22.1232 27.2811,20.1567 13.0984,-1.96654 22.1232,-14.1827 20.1567,-27.2811 -4.66654,-30.9425 -20.478,-58.317 -43.1599,-77.8418 -22.3949,-19.278 -51.502,-30.9662 -83.2205,-30.9662l-13.9654 0 -0.056693 0c-5.35985,-0.00236221 -10.7539,1.77992 -15.2221,5.44489l15.2221 18.5551 -15.1878 -18.4689c-5.00788,4.10788 -10.187,7.35237 -15.4465,9.47481 -4.26733,1.72205 -8.67048,2.66929 -13.1504,2.66929 -4.47992,0 -8.8819,-0.946064 -13.1492,-2.66929 -4.7752,-1.92756 -9.48544,-4.77874 -14.0599,-8.36221 -4.30866,-4.11614 -10.1457,-6.64371 -16.5744,-6.64371l-14.0221 0c-31.9831,0 -61.3158,11.8937 -83.7863,31.4705 -22.7197,19.7917 -38.4331,47.5323 -42.7713,78.8422z"/>
  <path class="fil1" d="M1024 532.002c36.2634,0 69.5315,9.06969 93.6048,28.3205 23.1355,18.4984 37.2626,45.3071 37.2626,81.1347 0,36.4725 -15.8764,85.0631 -40.9949,121.506 -22.9193,33.2516 -54.0945,57.5351 -89.8725,57.5351 -35.7792,0 -66.9508,-24.2823 -89.8725,-57.5351 -25.1173,-36.4429 -40.9937,-85.0335 -40.9937,-121.506 0,-35.8276 14.1272,-62.6351 37.2614,-81.1359 24.0732,-19.2484 57.3414,-28.3193 93.6048,-28.3193zm63.7914 65.6339c-14.9894,-11.9858 -37.78,-17.6339 -63.7914,-17.6339 -26.0126,0 -48.8032,5.64804 -63.7914,17.6327 -11.8429,9.47009 -19.0748,23.8866 -19.0748,43.8225 0,27.8445 12.5362,65.5441 32.3693,94.3194 14.6291,21.2232 32.5524,36.7217 50.4969,36.7217 17.9445,0 35.8689,-15.4984 50.4969,-36.7217 19.8343,-28.7752 32.3705,-66.4749 32.3705,-94.3194 0,-19.9358 -7.2319,-34.3512 -19.076,-43.8213z"/>
 </g>
 <rect class="fil2" width="2048" height="2048"/>
</svg>
